<?xml version="1.0" encoding="UTF-8" standalone="no"?>
<!DOCTYPE svg PUBLIC "-//W3C//DTD SVG 1.1//EN"
 "http://www.w3.org/Graphics/SVG/1.1/DTD/svg11.dtd">
<!-- Generated by graphviz version 8.1.0 (0)
 -->
<!-- Pages: 1 -->
<svg width="601pt" height="205pt"
 viewBox="0.00 0.00 600.95 204.79" xmlns="http://www.w3.org/2000/svg" xmlns:xlink="http://www.w3.org/1999/xlink">
<g id="graph0" class="graph" transform="scale(1 1) rotate(0) translate(4 200.79)">
<polygon fill="white" stroke="none" points="-4,4 -4,-200.79 596.95,-200.79 596.95,4 -4,4"/>
<!-- WHITE -->
<g id="node1" class="node">
<title>WHITE</title>
<ellipse fill="#e5e5e5" stroke="black" cx="47" cy="-80.63" rx="47" ry="47"/>
<text text-anchor="middle" x="47" y="-75.95" font-family="Times,serif" font-size="14.00">WHITE</text>
</g>
<!-- RED -->
<g id="node2" class="node">
<title>RED</title>
<ellipse fill="lightpink" stroke="black" cx="163.84" cy="-111.63" rx="33.85" ry="33.85"/>
<text text-anchor="middle" x="163.84" y="-106.95" font-family="Times,serif" font-size="14.00">RED</text>
</g>
<!-- WHITE&#45;&gt;RED -->
<g id="edge1" class="edge">
<title>WHITE&#45;&gt;RED</title>
<path fill="none" stroke="black" d="M92.73,-92.7C101.78,-95.15 111.26,-97.71 120.23,-100.13"/>
<polygon fill="black" stroke="black" points="119.28,-103.77 129.85,-102.99 121.11,-97.01 119.28,-103.77"/>
</g>
<!-- BLUE -->
<g id="node3" class="node">
<title>BLUE</title>
<ellipse fill="lightblue" stroke="black" cx="273.85" cy="-156.63" rx="40.16" ry="40.16"/>
<text text-anchor="middle" x="273.85" y="-151.95" font-family="Times,serif" font-size="14.00">BLUE</text>
</g>
<!-- WHITE&#45;&gt;BLUE -->
<g id="edge2" class="edge">
<title>WHITE&#45;&gt;BLUE</title>
<path fill="none" stroke="black" d="M77.29,-116.69C91.49,-131.37 109.83,-146.71 130,-154.63 159.35,-166.15 194.78,-166.72 223.01,-164.38"/>
<polygon fill="black" stroke="black" points="223.23,-167.78 232.84,-163.31 222.54,-160.81 223.23,-167.78"/>
</g>
<!-- RED&#45;&gt;BLUE -->
<g id="edge3" class="edge">
<title>RED&#45;&gt;BLUE</title>
<path fill="none" stroke="black" d="M197.25,-118.89C207.23,-122.55 218.39,-127.07 229.01,-131.72"/>
<polygon fill="black" stroke="black" points="227.41,-135.29 237.97,-136.2 230.28,-128.91 227.41,-135.29"/>
</g>
<!-- PURPLE -->
<g id="node4" class="node">
<title>PURPLE</title>
<ellipse fill="thistle" stroke="black" cx="403.85" cy="-90.63" rx="53.84" ry="53.84"/>
<text text-anchor="middle" x="403.85" y="-85.95" font-family="Times,serif" font-size="14.00">PURPLE</text>
</g>
<!-- RED&#45;&gt;PURPLE -->
<g id="edge5" class="edge">
<title>RED&#45;&gt;PURPLE</title>
<path fill="none" stroke="black" d="M197.94,-108.71C234.28,-105.5 293.52,-100.28 338.97,-96.27"/>
<polygon fill="black" stroke="black" points="339.26,-99.67 348.92,-95.3 338.65,-92.69 339.26,-99.67"/>
</g>
<!-- BLUE&#45;&gt;RED -->
<g id="edge4" class="edge">
<title>BLUE&#45;&gt;RED</title>
<path fill="none" stroke="black" d="M234.73,-147.23C224.41,-143.29 213.23,-138.63 202.91,-133.97"/>
<polygon fill="black" stroke="black" points="204.48,-130.38 193.94,-129.34 201.54,-136.73 204.48,-130.38"/>
</g>
<!-- BLUE&#45;&gt;PURPLE -->
<g id="edge6" class="edge">
<title>BLUE&#45;&gt;PURPLE</title>
<path fill="none" stroke="black" d="M310.17,-138.42C321.26,-132.7 333.8,-126.23 346,-119.94"/>
<polygon fill="black" stroke="black" points="347.38,-122.65 354.67,-114.96 344.17,-116.43 347.38,-122.65"/>
</g>
<!-- PURPLE&#45;&gt;WHITE -->
<g id="edge8" class="edge">
<title>PURPLE&#45;&gt;WHITE</title>
<path fill="none" stroke="black" d="M350.31,-81.61C295.38,-73.3 206.67,-63.05 130,-68.63 121.62,-69.24 112.81,-70.19 104.18,-71.31"/>
<polygon fill="black" stroke="black" points="103.84,-67.96 94.41,-72.78 104.79,-74.89 103.84,-67.96"/>
</g>
<!-- GREEN -->
<g id="node5" class="node">
<title>GREEN</title>
<ellipse fill="palegreen" stroke="black" cx="543.32" cy="-49.63" rx="49.63" ry="49.63"/>
<text text-anchor="middle" x="543.32" y="-44.95" font-family="Times,serif" font-size="14.00">GREEN</text>
</g>
<!-- PURPLE&#45;&gt;GREEN -->
<g id="edge7" class="edge">
<title>PURPLE&#45;&gt;GREEN</title>
<path fill="none" stroke="black" d="M455.65,-75.48C465.2,-72.63 475.24,-69.64 484.97,-66.73"/>
<polygon fill="black" stroke="black" points="485.79,-69.84 494.37,-63.63 483.79,-63.14 485.79,-69.84"/>
</g>
<!-- GREEN&#45;&gt;WHITE -->
<g id="edge9" class="edge">
<title>GREEN&#45;&gt;WHITE</title>
<path fill="none" stroke="black" d="M495.73,-35.26C483.48,-32.1 470.19,-29.23 457.69,-27.63 330.54,-11.37 181.24,-43.65 102.7,-64.61"/>
<polygon fill="black" stroke="black" points="102.29,-61.37 93.55,-67.36 104.12,-68.13 102.29,-61.37"/>
</g>
</g>
</svg>
